<?xml version="1.0" encoding="iso-8859-1"?>
<!-- Generator: Adobe Illustrator 16.0.3, SVG Export Plug-In . SVG Version: 6.00 Build 0)  -->
<!DOCTYPE svg PUBLIC "-//W3C//DTD SVG 1.1//EN" "http://www.w3.org/Graphics/SVG/1.1/DTD/svg11.dtd">
<svg version="1.1" id="Layer_1" xmlns="http://www.w3.org/2000/svg" xmlns:xlink="http://www.w3.org/1999/xlink" x="0px" y="0px"
	 width="28px" height="19px" viewBox="0 0 28 19" style="enable-background:new 0 0 28 19;" xml:space="preserve">
<g>
	<g>
		<g>
			<circle id="circle_8_" style="fill:#999999;" cx="14.369" cy="16.488" r="2.335"/>
			<path style="fill:#999999;" d="M22.16,11.276l-2.082,2.259c-1.638-1.454-3.735-2.204-5.919-2.118
				c-2.191,0.089-4.214,1.002-5.72,2.579l-2.252-2.075C10.442,7.425,17.543,7.136,22.16,11.276L22.16,11.276z"/>
			<path style="fill:#999999;" d="M26.211,6.879l-2.077,2.253C18.329,3.904,9.382,4.262,4.041,9.935L1.789,7.863
				C8.277,0.945,19.164,0.506,26.211,6.879L26.211,6.879z"/>
		</g>
	</g>
	
		<rect x="11.955" y="-2.829" transform="matrix(0.6877 0.726 -0.726 0.6877 11.0687 -6.7318)" style="fill:#B51A1D;" width="2.807" height="24.659"/>
</g>
</svg>
