<?xml version="1.0" encoding="iso-8859-1"?>
<!-- Generator: Adobe Illustrator 16.0.3, SVG Export Plug-In . SVG Version: 6.00 Build 0)  -->
<!DOCTYPE svg PUBLIC "-//W3C//DTD SVG 1.1//EN" "http://www.w3.org/Graphics/SVG/1.1/DTD/svg11.dtd">
<svg version="1.1" xmlns="http://www.w3.org/2000/svg" xmlns:xlink="http://www.w3.org/1999/xlink" x="0px" y="0px" width="50px"
	 height="50px" viewBox="0 0 50 50" style="enable-background:new 0 0 50 50;" xml:space="preserve">
<g id="Layer_1">
	<g>
		<rect x="21.526" y="689.412" style="fill:none;" width="20" height="20"/>
		<path d="M37.68,704.448v2.656c0,0.425-0.346,0.77-0.77,0.77h-10.77c-0.423,0-0.769-0.345-0.769-0.77v-15.384
			c0-0.425,0.346-0.77,0.769-0.77h10.77c0.424,0,0.77,0.345,0.77,0.77v2.656l1.538,1.333v-3.989c0-1.274-1.034-2.309-2.308-2.309
			h-10.77c-1.273,0-2.306,1.034-2.306,2.309v15.384c0,1.274,1.033,2.308,2.306,2.308h10.77c1.273,0,2.308-1.033,2.308-2.308v-3.99
			L37.68,704.448z"/>
		<g>
			<path d="M34.603,704.412c0,0-0.769,0.218-0.769-0.769c0-0.224,0-0.967,0-1.923h-4.617c-0.422,0-0.768-0.347-0.768-0.77v-3.078
				c0-0.423,0.346-0.769,0.768-0.769h4.617c0-0.919,0-1.657,0-1.946c0-1.035,0.769-0.746,0.769-0.746l5.769,5L34.603,704.412z"/>
		</g>
	</g>
	<path id="user-icon" d="M32.352,30.054c-2.865-0.66-5.533-1.238-4.242-3.675C32.043,18.965,29.152,15,24.999,15
		c-4.234,0-7.054,4.117-3.11,11.379c1.331,2.45-1.438,3.028-4.241,3.675c-2.865,0.662-2.645,2.172-2.645,4.912h19.993
		C34.996,32.226,35.215,30.716,32.352,30.054z"/>
</g>
<g id="Layer_2">
</g>
</svg>
