<?xml version="1.0" encoding="iso-8859-1"?>
<!-- Generator: Adobe Illustrator 16.0.3, SVG Export Plug-In . SVG Version: 6.00 Build 0)  -->
<!DOCTYPE svg PUBLIC "-//W3C//DTD SVG 1.1//EN" "http://www.w3.org/Graphics/SVG/1.1/DTD/svg11.dtd">
<svg version="1.1" xmlns="http://www.w3.org/2000/svg" xmlns:xlink="http://www.w3.org/1999/xlink" x="0px" y="0px" width="50px"
	 height="50px" viewBox="0 0 50 50" style="enable-background:new 0 0 50 50;" xml:space="preserve">
<g id="Layer_1">
	<g>
		<rect x="21.526" y="689.412" style="fill:none;" width="20" height="20"/>
		<path d="M37.68,704.448v2.656c0,0.425-0.346,0.77-0.77,0.77h-10.77c-0.423,0-0.769-0.345-0.769-0.77v-15.384
			c0-0.425,0.346-0.77,0.769-0.77h10.77c0.424,0,0.77,0.345,0.77,0.77v2.656l1.538,1.333v-3.989c0-1.274-1.034-2.309-2.308-2.309
			h-10.77c-1.273,0-2.306,1.034-2.306,2.309v15.384c0,1.274,1.033,2.308,2.306,2.308h10.77c1.273,0,2.308-1.033,2.308-2.308v-3.99
			L37.68,704.448z"/>
		<g>
			<path d="M34.603,704.412c0,0-0.769,0.218-0.769-0.769c0-0.224,0-0.967,0-1.923h-4.617c-0.422,0-0.768-0.347-0.768-0.77v-3.078
				c0-0.423,0.346-0.769,0.768-0.769h4.617c0-0.919,0-1.657,0-1.946c0-1.035,0.769-0.746,0.769-0.746l5.769,5L34.603,704.412z"/>
		</g>
	</g>
	<g>
		<rect x="19" y="15" style="fill:#41A62A;" width="13" height="2"/>
		<path style="fill:#41A62A;" d="M34,29H17c0.297-2.98,2-5,2-5h13C32,24,33.906,26.994,34,29z"/>
		<rect x="22" y="16" style="fill:#41A62A;" width="7" height="9"/>
		<polygon style="fill:#41A62A;" points="25.398,36.959 24.532,32.479 23.667,28 25.398,28 27.13,28 26.264,32.479 		"/>
	</g>
</g>
<g id="Layer_2" style="display:none;">
</g>
</svg>
