<?xml version="1.0" encoding="iso-8859-1"?>
<!-- Generator: Adobe Illustrator 16.0.3, SVG Export Plug-In . SVG Version: 6.00 Build 0)  -->
<!DOCTYPE svg PUBLIC "-//W3C//DTD SVG 1.1//EN" "http://www.w3.org/Graphics/SVG/1.1/DTD/svg11.dtd">
<svg version="1.1" xmlns="http://www.w3.org/2000/svg" xmlns:xlink="http://www.w3.org/1999/xlink" x="0px" y="0px" width="50px"
	 height="50px" viewBox="0 0 50 50" style="enable-background:new 0 0 50 50;" xml:space="preserve">
<g id="Layer_1">
	<g>
		<rect x="21.526" y="689.412" style="fill:none;" width="20" height="20"/>
		<path d="M37.68,704.448v2.656c0,0.425-0.346,0.77-0.77,0.77h-10.77c-0.423,0-0.769-0.345-0.769-0.77v-15.384
			c0-0.425,0.346-0.77,0.769-0.77h10.77c0.424,0,0.77,0.345,0.77,0.77v2.656l1.538,1.333v-3.989c0-1.274-1.034-2.309-2.308-2.309
			h-10.77c-1.273,0-2.306,1.034-2.306,2.309v15.384c0,1.274,1.033,2.308,2.306,2.308h10.77c1.273,0,2.308-1.033,2.308-2.308v-3.99
			L37.68,704.448z"/>
		<g>
			<path d="M34.603,704.412c0,0-0.769,0.218-0.769-0.769c0-0.224,0-0.967,0-1.923h-4.617c-0.422,0-0.768-0.347-0.768-0.77v-3.078
				c0-0.423,0.346-0.769,0.768-0.769h4.617c0-0.919,0-1.657,0-1.946c0-1.035,0.769-0.746,0.769-0.746l5.769,5L34.603,704.412z"/>
		</g>
	</g>
	<g>
		<path id="user-icon_1_" style="fill:#808080;" d="M34.443,28.689c-1.955-0.451-3.775-0.846-2.893-2.508
			c2.682-5.058,0.711-7.764-2.124-7.764c-2.889,0-4.812,2.809-2.122,7.764c0.908,1.672-0.98,2.067-2.893,2.508
			c-1.956,0.451-1.805,1.481-1.805,3.352h13.641C36.248,30.171,36.398,29.141,34.443,28.689z"/>
		<path id="user-icon_2_" style="fill:#808080;stroke:#FFFFFF;stroke-width:0.9841;stroke-miterlimit:10;" d="M27.953,29.089
			c-2.593-0.599-5.008-1.122-3.838-3.326c3.559-6.709,0.943-10.297-2.816-10.297c-3.831,0-6.381,3.726-2.814,10.297
			c1.205,2.218-1.299,2.741-3.837,3.326c-2.593,0.597-2.393,1.964-2.393,4.444h18.091C30.346,31.053,30.546,29.686,27.953,29.089z"
			/>
	</g>
</g>
<g id="Layer_2">
</g>
</svg>
